# 3ds Max Wavefront OBJ Exporter v0.99 - (c)2007 guruware
# File Created: 11.01.2022 15:37:51

#
# object cherry
#

v  -6.00 -4.50 -1.50
v  -6.00 -1.50 -4.50
v  -6.00 -4.50 -4.50
v  -6.00 -1.50 -1.50
v  -5.00 -3.50 -5.50
v  -5.00 -2.50 -6.50
v  -5.00 -3.50 -6.50
v  -5.00 -2.50 -5.50
v  -5.00 -4.50 -4.50
v  -5.00 -5.50 -5.50
v  -5.00 -0.50 -5.50
v  -5.00 -1.50 -4.50
v  -5.00 -4.50 -1.50
v  -5.00 -1.50 -1.50
v  -5.00 -5.50 -0.50
v  -5.00 -0.50 -0.50
v  -4.00 -4.50 -5.50
v  -4.00 -3.50 -6.50
v  -4.00 -4.50 -6.50
v  -4.00 -3.50 -5.50
v  -4.00 -2.50 -5.50
v  -4.00 -1.50 -6.50
v  -4.00 -2.50 -6.50
v  -4.00 -1.50 -5.50
v  -4.00 -6.50 -1.50
v  -4.00 -5.50 -4.50
v  -4.00 -6.50 -4.50
v  -4.00 -5.50 -1.50
v  -4.00 -0.50 -1.50
v  -4.00 0.50 -4.50
v  -4.00 -0.50 -4.50
v  -4.00 0.50 -1.50
v  -4.00 -4.50 0.50
v  -4.00 -1.50 -0.50
v  -4.00 -4.50 -0.50
v  -4.00 -1.50 0.50
v  -4.00 -1.50 6.50
v  -4.00 -0.50 5.50
v  -4.00 -1.50 5.50
v  -4.00 -0.50 6.50
v  -3.00 -3.50 2.50
v  -3.00 -2.50 0.50
v  -3.00 -3.50 0.50
v  -3.00 -2.50 2.50
v  -2.00 -2.50 2.50
v  -2.00 -1.50 1.50
v  -2.00 -2.50 1.50
v  -2.00 -1.50 2.50
v  -2.00 -0.50 6.50
v  -2.00 0.50 5.50
v  -2.00 -0.50 5.50
v  -2.00 0.50 6.50
v  -1.00 1.50 0.50
v  -1.00 4.50 -2.50
v  -1.00 1.50 -2.50
v  -1.00 4.50 0.50
v  -1.00 -2.50 3.50
v  -1.00 -1.50 2.50
v  -1.00 -2.50 2.50
v  -1.00 -0.50 2.50
v  -1.00 -1.50 3.50
v  -1.00 -0.50 3.50
v  -1.00 -1.50 4.50
v  -1.00 1.50 3.50
v  -1.00 -0.50 4.50
v  -1.00 -0.50 5.50
v  -1.00 0.50 5.50
v  -1.00 1.50 5.50
v  -0.00 1.50 -2.50
v  -0.00 5.50 -3.50
v  -0.00 0.50 -3.50
v  -0.00 4.50 -2.50
v  -0.00 1.50 0.50
v  -0.00 4.50 0.50
v  -0.00 0.50 1.50
v  -0.00 5.50 1.50
v  -0.00 1.50 3.50
v  -0.00 2.50 2.50
v  -0.00 1.50 2.50
v  -0.00 1.50 4.50
v  -0.00 2.50 4.50
v  1.00 1.50 -3.50
v  1.00 4.50 -4.50
v  1.00 1.50 -4.50
v  1.00 4.50 -3.50
v  1.00 -0.50 0.50
v  1.00 0.50 -2.50
v  1.00 -0.50 -2.50
v  1.00 0.50 0.50
v  1.00 5.50 0.50
v  1.00 6.50 -2.50
v  1.00 5.50 -2.50
v  1.00 6.50 0.50
v  1.00 1.50 2.50
v  1.00 4.50 1.50
v  1.00 1.50 1.50
v  1.00 2.50 2.50
v  1.00 4.50 2.50
v  -2.00 -3.50 0.50
v  -2.00 -2.50 0.50
v  -2.00 -3.50 1.50
v  -1.00 -4.50 -6.50
v  -1.00 -1.50 -6.50
v  -1.00 -4.50 -5.50
v  -1.00 -1.50 -5.50
v  -1.00 -6.50 -4.50
v  -1.00 -5.50 -4.50
v  -1.00 -6.50 -1.50
v  -1.00 -5.50 -1.50
v  -1.00 -0.50 -4.50
v  -1.00 0.50 -4.50
v  -1.00 -0.50 -1.50
v  -1.00 0.50 -1.50
v  -1.00 -4.50 -0.50
v  -1.00 -1.50 -0.50
v  -1.00 -4.50 0.50
v  -1.00 -1.50 0.50
v  -1.00 -3.50 1.50
v  -1.00 -2.50 1.50
v  -1.00 -3.50 2.50
v  -1.00 -1.50 5.50
v  -1.00 -1.50 6.50
v  -1.00 -0.50 6.50
v  -0.00 -5.50 -5.50
v  -0.00 -0.50 -5.50
v  -0.00 -4.50 -4.50
v  -0.00 -1.50 -4.50
v  -0.00 -4.50 -1.50
v  -0.00 -1.50 -1.50
v  -0.00 -5.50 -0.50
v  -0.00 -0.50 -0.50
v  -0.00 -2.50 1.50
v  -0.00 -1.50 1.50
v  -0.00 -1.50 2.50
v  -0.00 -2.50 3.50
v  -0.00 -0.50 2.50
v  -0.00 -1.50 3.50
v  -0.00 -0.50 3.50
v  -0.00 0.50 4.50
v  -0.00 0.50 5.50
v  -0.00 1.50 5.50
v  -0.00 -0.50 5.50
v  -0.00 -0.50 6.50
v  -0.00 0.50 6.50
v  1.00 -4.50 -4.50
v  1.00 -1.50 -4.50
v  1.00 -4.50 -1.50
v  1.00 -1.50 -1.50
v  1.00 -1.50 3.50
v  1.00 1.50 3.50
v  1.00 -1.50 4.50
v  1.00 2.50 3.50
v  1.00 -0.50 4.50
v  1.00 0.50 4.50
v  1.00 2.50 4.50
v  1.00 -0.50 5.50
v  1.00 0.50 5.50
v  2.00 1.50 2.50
v  2.00 2.50 2.50
v  2.00 1.50 3.50
v  2.00 2.50 3.50
v  4.00 1.50 -4.50
v  4.00 4.50 -4.50
v  4.00 1.50 -3.50
v  4.00 4.50 -3.50
v  4.00 -0.50 -2.50
v  4.00 0.50 -2.50
v  4.00 -0.50 0.50
v  4.00 0.50 0.50
v  4.00 5.50 -2.50
v  4.00 6.50 -2.50
v  4.00 5.50 0.50
v  4.00 6.50 0.50
v  4.00 1.50 1.50
v  4.00 4.50 1.50
v  4.00 1.50 2.50
v  4.00 4.50 2.50
v  5.00 0.50 -3.50
v  5.00 5.50 -3.50
v  5.00 1.50 -2.50
v  5.00 4.50 -2.50
v  5.00 1.50 0.50
v  5.00 4.50 0.50
v  5.00 0.50 1.50
v  5.00 5.50 1.50
v  6.00 1.50 -2.50
v  6.00 4.50 -2.50
v  6.00 1.50 0.50
v  6.00 4.50 0.50
# 189 vertices

vn -1.00 0.00 -0.00
vn 1.00 0.00 -0.00
vn 0.00 -1.00 -0.00
vn 0.00 1.00 0.00
vn 0.00 0.00 -1.00
vn 0.00 -0.00 1.00
# 6 vertex normals

vt 0.70 0.50 0.00
vt 0.87 0.50 0.00
# 2 texture coords

f 1/1/1 2/1/1 3/1/1 
f 4/1/1 2/1/1 1/1/1 
f 5/1/1 6/1/1 7/1/1 
f 8/1/1 6/1/1 5/1/1 
f 9/1/1 5/1/1 10/1/1 
f 9/1/1 11/1/1 8/1/1 
f 9/1/1 8/1/1 5/1/1 
f 12/1/1 11/1/1 9/1/1 
f 13/1/1 9/1/1 10/1/1 
f 14/1/1 11/1/1 12/1/1 
f 15/1/1 13/1/1 10/1/1 
f 15/1/1 14/1/1 13/1/1 
f 16/1/1 11/1/1 14/1/1 
f 16/1/1 14/1/1 15/1/1 
f 17/1/1 18/1/1 19/1/1 
f 20/1/1 18/1/1 17/1/1 
f 21/1/1 22/1/1 23/1/1 
f 24/1/1 22/1/1 21/1/1 
f 25/1/1 26/1/1 27/1/1 
f 28/1/1 26/1/1 25/1/1 
f 29/1/1 30/1/1 31/1/1 
f 32/1/1 30/1/1 29/1/1 
f 33/1/1 34/1/1 35/1/1 
f 36/1/1 34/1/1 33/1/1 
f 37/2/1 38/2/1 39/2/1 
f 40/2/1 38/2/1 37/2/1 
f 41/2/1 42/2/1 43/2/1 
f 44/2/1 42/2/1 41/2/1 
f 45/2/1 46/2/1 47/2/1 
f 48/2/1 46/2/1 45/2/1 
f 49/2/1 50/2/1 51/2/1 
f 52/2/1 50/2/1 49/2/1 
f 53/1/1 54/1/1 55/1/1 
f 56/1/1 54/1/1 53/1/1 
f 57/2/1 58/2/1 59/2/1 
f 57/2/1 60/2/1 58/2/1 
f 61/2/1 60/2/1 57/2/1 
f 62/2/1 60/2/1 61/2/1 
f 63/2/1 64/2/1 62/2/1 
f 63/2/1 62/2/1 61/2/1 
f 65/2/1 64/2/1 63/2/1 
f 66/2/1 64/2/1 65/2/1 
f 67/2/1 64/2/1 66/2/1 
f 68/2/1 64/2/1 67/2/1 
f 69/1/1 70/1/1 71/1/1 
f 72/1/1 70/1/1 69/1/1 
f 73/1/1 69/1/1 71/1/1 
f 74/1/1 70/1/1 72/1/1 
f 75/1/1 73/1/1 71/1/1 
f 75/1/1 74/1/1 73/1/1 
f 76/1/1 70/1/1 74/1/1 
f 76/1/1 74/1/1 75/1/1 
f 77/2/1 78/2/1 79/2/1 
f 80/2/1 78/2/1 77/2/1 
f 81/2/1 78/2/1 80/2/1 
f 82/1/1 83/1/1 84/1/1 
f 85/1/1 83/1/1 82/1/1 
f 86/1/1 87/1/1 88/1/1 
f 89/1/1 87/1/1 86/1/1 
f 90/1/1 91/1/1 92/1/1 
f 93/1/1 91/1/1 90/1/1 
f 94/1/1 95/1/1 96/1/1 
f 97/1/1 95/1/1 94/1/1 
f 98/1/1 95/1/1 97/1/1 
f 99/2/2 100/2/2 101/2/2 
f 101/2/2 100/2/2 47/2/2 
f 102/1/2 103/1/2 104/1/2 
f 104/1/2 103/1/2 105/1/2 
f 106/1/2 107/1/2 108/1/2 
f 108/1/2 107/1/2 109/1/2 
f 110/1/2 111/1/2 112/1/2 
f 112/1/2 111/1/2 113/1/2 
f 114/1/2 115/1/2 116/1/2 
f 116/1/2 115/1/2 117/1/2 
f 118/2/2 119/2/2 120/2/2 
f 120/2/2 119/2/2 59/2/2 
f 121/2/2 66/2/2 122/2/2 
f 122/2/2 66/2/2 123/2/2 
f 124/1/2 125/1/2 126/1/2 
f 126/1/2 125/1/2 127/1/2 
f 124/1/2 126/1/2 128/1/2 
f 127/1/2 125/1/2 129/1/2 
f 124/1/2 128/1/2 130/1/2 
f 128/1/2 129/1/2 130/1/2 
f 129/1/2 125/1/2 131/1/2 
f 130/1/2 129/1/2 131/1/2 
f 132/2/2 133/2/2 134/2/2 
f 132/2/2 134/2/2 135/2/2 
f 134/2/2 136/2/2 135/2/2 
f 135/2/2 136/2/2 137/2/2 
f 137/2/2 136/2/2 138/2/2 
f 139/2/2 80/2/2 140/2/2 
f 140/2/2 80/2/2 141/2/2 
f 142/2/2 140/2/2 143/2/2 
f 143/2/2 140/2/2 144/2/2 
f 145/1/2 146/1/2 147/1/2 
f 147/1/2 146/1/2 148/1/2 
f 149/2/2 150/2/2 151/2/2 
f 150/2/2 152/2/2 151/2/2 
f 151/2/2 152/2/2 153/2/2 
f 153/2/2 152/2/2 154/2/2 
f 154/2/2 152/2/2 155/2/2 
f 153/2/2 154/2/2 156/2/2 
f 156/2/2 154/2/2 157/2/2 
f 158/2/2 159/2/2 160/2/2 
f 160/2/2 159/2/2 161/2/2 
f 162/1/2 163/1/2 164/1/2 
f 164/1/2 163/1/2 165/1/2 
f 166/1/2 167/1/2 168/1/2 
f 168/1/2 167/1/2 169/1/2 
f 170/1/2 171/1/2 172/1/2 
f 172/1/2 171/1/2 173/1/2 
f 174/1/2 175/1/2 176/1/2 
f 176/1/2 175/1/2 177/1/2 
f 178/1/2 179/1/2 180/1/2 
f 180/1/2 179/1/2 181/1/2 
f 178/1/2 180/1/2 182/1/2 
f 181/1/2 179/1/2 183/1/2 
f 178/1/2 182/1/2 184/1/2 
f 182/1/2 183/1/2 184/1/2 
f 183/1/2 179/1/2 185/1/2 
f 184/1/2 183/1/2 185/1/2 
f 186/1/2 187/1/2 188/1/2 
f 188/1/2 187/1/2 189/1/2 
f 106/1/3 25/1/3 27/1/3 
f 108/1/3 25/1/3 106/1/3 
f 26/1/3 15/1/3 10/1/3 
f 28/1/3 15/1/3 26/1/3 
f 107/1/3 26/1/3 10/1/3 
f 109/1/3 15/1/3 28/1/3 
f 124/1/3 107/1/3 10/1/3 
f 124/1/3 109/1/3 107/1/3 
f 130/1/3 15/1/3 109/1/3 
f 130/1/3 109/1/3 124/1/3 
f 9/1/3 1/1/3 3/1/3 
f 13/1/3 1/1/3 9/1/3 
f 102/1/3 17/1/3 19/1/3 
f 104/1/3 17/1/3 102/1/3 
f 114/1/3 33/1/3 35/1/3 
f 116/1/3 33/1/3 114/1/3 
f 145/1/3 128/1/3 126/1/3 
f 147/1/3 128/1/3 145/1/3 
f 18/1/3 5/1/3 7/1/3 
f 20/1/3 5/1/3 18/1/3 
f 99/2/3 41/2/3 43/2/3 
f 101/2/3 41/2/3 99/2/3 
f 118/2/3 41/2/3 101/2/3 
f 120/2/3 41/2/3 118/2/3 
f 132/2/3 59/2/3 119/2/3 
f 132/2/3 57/2/3 59/2/3 
f 135/2/3 57/2/3 132/2/3 
f 121/2/3 37/2/3 39/2/3 
f 122/2/3 37/2/3 121/2/3 
f 137/2/3 63/2/3 61/2/3 
f 149/2/3 63/2/3 137/2/3 
f 151/2/3 63/2/3 149/2/3 
f 142/2/3 66/2/3 65/2/3 
f 142/2/3 123/2/3 66/2/3 
f 143/2/3 123/2/3 142/2/3 
f 153/2/3 142/2/3 65/2/3 
f 156/2/3 142/2/3 153/2/3 
f 166/1/3 86/1/3 88/1/3 
f 168/1/3 86/1/3 166/1/3 
f 87/1/3 75/1/3 71/1/3 
f 89/1/3 75/1/3 87/1/3 
f 167/1/3 87/1/3 71/1/3 
f 169/1/3 75/1/3 89/1/3 
f 178/1/3 167/1/3 71/1/3 
f 178/1/3 169/1/3 167/1/3 
f 184/1/3 75/1/3 169/1/3 
f 184/1/3 169/1/3 178/1/3 
f 69/1/3 53/1/3 55/1/3 
f 73/1/3 53/1/3 69/1/3 
f 94/2/3 77/2/3 79/2/3 
f 150/2/3 77/2/3 94/2/3 
f 158/1/3 94/1/3 96/1/3 
f 158/2/3 150/2/3 94/2/3 
f 160/2/3 150/2/3 158/2/3 
f 162/1/3 82/1/3 84/1/3 
f 164/1/3 82/1/3 162/1/3 
f 174/1/3 158/1/3 96/1/3 
f 176/1/3 158/1/3 174/1/3 
f 186/1/3 182/1/3 180/1/3 
f 188/1/3 182/1/3 186/1/3 
f 6/1/4 8/1/4 23/1/4 
f 23/1/4 8/1/4 21/1/4 
f 42/2/4 44/2/4 100/2/4 
f 100/2/4 44/2/4 47/2/4 
f 47/2/4 44/2/4 45/2/4 
f 2/1/4 4/1/4 12/1/4 
f 12/1/4 4/1/4 14/1/4 
f 22/1/4 24/1/4 103/1/4 
f 103/1/4 24/1/4 105/1/4 
f 34/1/4 36/1/4 115/1/4 
f 115/1/4 36/1/4 117/1/4 
f 46/2/4 48/2/4 58/2/4 
f 46/2/4 58/2/4 133/2/4 
f 133/2/4 58/2/4 134/2/4 
f 127/1/4 129/1/4 146/1/4 
f 146/1/4 129/1/4 148/1/4 
f 11/1/4 16/1/4 31/1/4 
f 31/1/4 16/1/4 29/1/4 
f 38/2/4 40/2/4 51/2/4 
f 51/2/4 40/2/4 49/2/4 
f 11/1/4 31/1/4 110/1/4 
f 29/1/4 16/1/4 112/1/4 
f 11/1/4 110/1/4 125/1/4 
f 110/1/4 112/1/4 125/1/4 
f 112/1/4 16/1/4 131/1/4 
f 125/1/4 112/1/4 131/1/4 
f 60/2/4 62/2/4 136/2/4 
f 136/2/4 62/2/4 138/2/4 
f 30/1/4 32/1/4 111/1/4 
f 111/1/4 32/1/4 113/1/4 
f 50/2/4 52/2/4 67/2/4 
f 67/2/4 52/2/4 140/2/4 
f 140/2/4 52/2/4 144/2/4 
f 139/2/4 140/2/4 154/2/4 
f 154/2/4 140/2/4 157/2/4 
f 64/2/4 68/2/4 77/2/4 
f 77/2/4 68/2/4 80/2/4 
f 80/2/4 68/2/4 141/2/4 
f 78/2/4 81/2/4 97/2/4 
f 97/2/4 81/2/4 152/2/4 
f 152/2/4 81/2/4 155/2/4 
f 97/2/4 152/2/4 159/2/4 
f 159/2/4 152/2/4 161/2/4 
f 54/1/4 56/1/4 72/1/4 
f 72/1/4 56/1/4 74/1/4 
f 83/1/4 85/1/4 163/1/4 
f 163/1/4 85/1/4 165/1/4 
f 95/1/4 98/1/4 175/1/4 
f 175/1/4 98/1/4 177/1/4 
f 181/1/4 183/1/4 187/1/4 
f 187/1/4 183/1/4 189/1/4 
f 70/1/4 76/1/4 92/1/4 
f 92/1/4 76/1/4 90/1/4 
f 70/1/4 92/1/4 170/1/4 
f 90/1/4 76/1/4 172/1/4 
f 70/1/4 170/1/4 179/1/4 
f 170/1/4 172/1/4 179/1/4 
f 172/1/4 76/1/4 185/1/4 
f 179/1/4 172/1/4 185/1/4 
f 91/1/4 93/1/4 171/1/4 
f 171/1/4 93/1/4 173/1/4 
f 18/1/5 102/1/5 19/1/5 
f 6/1/5 18/1/5 7/1/5 
f 23/1/5 102/1/5 18/1/5 
f 23/1/5 18/1/5 6/1/5 
f 22/1/5 102/1/5 23/1/5 
f 103/1/5 102/1/5 22/1/5 
f 17/1/5 124/1/5 10/1/5 
f 104/1/5 124/1/5 17/1/5 
f 5/1/5 17/1/5 10/1/5 
f 20/1/5 17/1/5 5/1/5 
f 24/1/5 21/1/5 8/1/5 
f 105/1/5 124/1/5 104/1/5 
f 11/1/5 24/1/5 8/1/5 
f 11/1/5 105/1/5 24/1/5 
f 125/1/5 124/1/5 105/1/5 
f 125/1/5 105/1/5 11/1/5 
f 26/1/5 106/1/5 27/1/5 
f 107/1/5 106/1/5 26/1/5 
f 2/1/5 9/1/5 3/1/5 
f 12/1/5 9/1/5 2/1/5 
f 127/1/5 145/1/5 126/1/5 
f 146/1/5 145/1/5 127/1/5 
f 30/1/5 110/1/5 31/1/5 
f 111/1/5 110/1/5 30/1/5 
f 83/1/5 162/1/5 84/1/5 
f 163/1/5 162/1/5 83/1/5 
f 82/1/5 178/1/5 71/1/5 
f 164/1/5 178/1/5 82/1/5 
f 85/1/5 82/1/5 71/1/5 
f 165/1/5 178/1/5 164/1/5 
f 70/1/5 85/1/5 71/1/5 
f 70/1/5 165/1/5 85/1/5 
f 179/1/5 178/1/5 165/1/5 
f 179/1/5 165/1/5 70/1/5 
f 87/1/5 166/1/5 88/1/5 
f 167/1/5 166/1/5 87/1/5 
f 54/1/5 69/1/5 55/1/5 
f 72/1/5 69/1/5 54/1/5 
f 181/1/5 186/1/5 180/1/5 
f 187/1/5 186/1/5 181/1/5 
f 91/1/5 170/1/5 92/1/5 
f 171/1/5 170/1/5 91/1/5 
f 47/2/5 118/2/5 101/2/5 
f 119/2/5 118/2/5 47/2/5 
f 46/2/5 119/2/5 47/2/5 
f 46/2/5 132/2/5 119/2/5 
f 133/2/5 132/2/5 46/2/5 
f 60/2/5 134/2/5 58/2/5 
f 136/2/5 134/2/5 60/2/5 
f 78/2/5 94/2/5 79/2/5 
f 97/2/5 94/2/5 78/2/5 
f 138/2/5 149/2/5 137/2/5 
f 64/2/5 138/2/5 62/2/5 
f 77/2/5 149/2/5 138/2/5 
f 77/2/5 138/2/5 64/2/5 
f 150/2/5 149/2/5 77/2/5 
f 38/2/5 121/2/5 39/2/5 
f 51/2/5 121/2/5 38/2/5 
f 66/2/5 121/2/5 51/2/5 
f 50/2/5 66/2/5 51/2/5 
f 67/2/5 66/2/5 50/2/5 
f 25/1/6 108/1/6 28/1/6 
f 28/1/6 108/1/6 109/1/6 
f 1/1/6 13/1/6 4/1/6 
f 4/1/6 13/1/6 14/1/6 
f 128/1/6 147/1/6 129/1/6 
f 129/1/6 147/1/6 148/1/6 
f 29/1/6 112/1/6 32/1/6 
f 32/1/6 112/1/6 113/1/6 
f 15/1/6 130/1/6 35/1/6 
f 35/1/6 130/1/6 114/1/6 
f 15/1/6 35/1/6 34/1/6 
f 114/1/6 130/1/6 115/1/6 
f 15/1/6 34/1/6 16/1/6 
f 34/1/6 115/1/6 16/1/6 
f 115/1/6 130/1/6 131/1/6 
f 16/1/6 115/1/6 131/1/6 
f 33/1/6 116/1/6 43/1/6 
f 43/1/6 116/1/6 99/1/6 
f 33/1/6 43/1/6 42/1/6 
f 99/1/6 116/1/6 100/1/6 
f 33/1/6 42/1/6 36/1/6 
f 42/1/6 100/1/6 36/1/6 
f 100/1/6 116/1/6 117/1/6 
f 36/1/6 100/1/6 117/1/6 
f 86/1/6 168/1/6 89/1/6 
f 89/1/6 168/1/6 169/1/6 
f 53/1/6 73/1/6 56/1/6 
f 56/1/6 73/1/6 74/1/6 
f 182/1/6 188/1/6 183/1/6 
f 183/1/6 188/1/6 189/1/6 
f 90/1/6 172/1/6 93/1/6 
f 93/1/6 172/1/6 173/1/6 
f 75/1/6 184/1/6 96/1/6 
f 96/1/6 184/1/6 174/1/6 
f 75/1/6 96/1/6 95/1/6 
f 174/1/6 184/1/6 175/1/6 
f 75/1/6 95/1/6 76/1/6 
f 95/1/6 175/1/6 76/1/6 
f 175/1/6 184/1/6 185/1/6 
f 76/1/6 175/1/6 185/1/6 
f 41/2/6 120/2/6 44/2/6 
f 44/2/6 120/2/6 45/2/6 
f 45/2/6 120/2/6 59/2/6 
f 45/2/6 59/2/6 48/2/6 
f 48/2/6 59/2/6 58/2/6 
f 158/1/6 176/1/6 159/1/6 
f 97/1/6 159/1/6 98/1/6 
f 159/1/6 176/1/6 177/1/6 
f 98/1/6 159/1/6 177/1/6 
f 57/2/6 135/2/6 61/2/6 
f 61/2/6 135/2/6 137/2/6 
f 150/2/6 160/2/6 152/2/6 
f 152/2/6 160/2/6 161/2/6 
f 63/2/6 151/2/6 65/2/6 
f 65/2/6 151/2/6 153/2/6 
f 139/2/6 154/2/6 80/2/6 
f 80/2/6 154/2/6 81/2/6 
f 81/2/6 154/2/6 155/2/6 
f 142/2/6 156/2/6 140/2/6 
f 140/2/6 156/2/6 157/2/6 
f 67/2/6 140/2/6 68/2/6 
f 68/2/6 140/2/6 141/2/6 
f 37/2/6 122/2/6 40/2/6 
f 40/2/6 122/2/6 49/2/6 
f 49/2/6 122/2/6 123/2/6 
f 123/2/6 143/2/6 52/2/6 
f 49/2/6 123/2/6 52/2/6 
f 52/2/6 143/2/6 144/2/6 
# 374 faces

